<?xml version="1.0" encoding="utf-8"?>
<!-- Generator: Adobe Illustrator 26.3.0, SVG Export Plug-In . SVG Version: 6.00 Build 0)  -->
<svg version="1.1" id="Layer_1" xmlns="http://www.w3.org/2000/svg" xmlns:xlink="http://www.w3.org/1999/xlink" x="0px" y="0px"
	 viewBox="0 0 2000 2000" style="enable-background:new 0 0 2000 2000;" xml:space="preserve">
<style type="text/css">
	.st0{fill:none;}
	.st1{fill:none;stroke:#000000;stroke-width:4;stroke-miterlimit:10;}
	.st2{enable-background:new    ;}
	.st3{fill:#FFFFFF;stroke:#000000;stroke-miterlimit:10;}
</style>
<rect x="727.1" y="879" class="st0" width="69" height="70"/>
<polyline class="st1" points="618,981.8 830.8,889.5 891.3,916.8 891.3,898.6 943.4,897.1 943.4,935.7 1039.4,981.8 "/>
<rect x="542.2" y="1017.7" class="st0" width="398.3" height="116.7"/>
<g class="st2">
	<path d="M567.7,1033.2c1.4-0.7,4.2-2.4,8.4-5.1c1.2-0.8,4.6-2.7,10.1-5.8c2.2-1.2,5.1-2.7,8.6-4.2c2.1-1,3.6-1.5,4.3-1.5
		c0.5,0,0.9,0.2,1.3,0.5c0.5,0.5,0.7,1.1,0.7,1.9c0,0.9-0.4,1.6-1.2,2.2c-0.4,0.3-1.4,0.7-3,1.2c-10.4,4.1-19.1,9-26,14.9
		c-0.9,3.5-1.7,7-2.2,10.3c-1.1,7.2-1.6,13.2-1.6,18.1c0,1.8,0.2,3.1,0.7,4c0.4,0.9,1.1,1.3,2,1.3c1.7,0,5.2-3.6,10.3-10.9
		c1-1.4,1.8-2.1,2.3-2.1c0.7,0,1.1,0.5,1.1,1.4c0,1.3-1.4,4-4.2,8.1c-4.1,6-7.8,9-11.1,9c-2.8,0-4.7-1.5-5.6-4.5
		c-0.6-1.9-0.9-4.2-0.9-7c0-5.7,0.7-11.7,2.1-18.1c1.4-6.4,2.3-10.4,2.6-12c-1.8,3.4-5.2,9.1-10.2,17.1c-6,10.3-9.5,18.5-10.7,24.6
		c-0.5,2-1.4,3-2.7,3c-0.9,0-1.6-0.4-2.1-1.3c-0.3-0.5-0.4-1.1-0.4-1.9c0-2.5,1.3-6.7,4-12.6c1.5-3.3,3.5-7.4,6.2-12.2
		c1-1.8,3.2-5.3,6.5-10.6c7.4-11.8,12.1-20.3,14-25.7c0.7-1.9,1.2-3.1,1.6-3.6c0.6-0.7,1.3-1.1,2.1-1.1c0.5,0,0.9,0.1,1.2,0.4
		c0.5,0.4,0.7,1,0.7,1.7C576.7,1015.5,573.7,1022.3,567.7,1033.2z"/>
	<path d="M599.9,1067.2c-1.1,1.9-2.1,3.5-3.2,4.8c-2.1,2.5-4.1,3.8-6.1,3.8c-1.8,0-3.1-0.8-4.1-2.5c-0.6-1.1-0.9-2.3-0.9-3.8
		c0-3.6,1.1-7.6,3.4-12c2.5-4.8,5.6-8.6,9.2-11.2c2.3-1.7,4.6-2.5,6.8-2.5c1.4,0,2.5,0.4,3.4,1.3c0.8,0.7,1.2,1.6,1.2,2.5
		c0,0.7-0.3,1.7-0.8,3c0.5,0.7,0.7,1.3,0.7,1.8c0,0.7-0.5,1.8-1.4,3.4c-0.9,1.6-1.9,3.7-2.8,6.3c-1,2.8-1.5,5-1.5,6.7
		c0,1.4,0.4,2.5,1.2,3.4c0.2,0.2,0.9,0.6,2,1.1c0.8,0.4,1.2,1.1,1.2,2.1c0,0.6-0.2,1.1-0.7,1.5c-0.5,0.4-1.1,0.6-1.7,0.6
		c-1.8,0-3.3-0.8-4.5-2.3c-1-1.3-1.6-2.9-1.6-4.8C599.8,1069.8,599.8,1068.7,599.9,1067.2z M606.1,1051.1c-0.4-0.7-0.8-1.2-1.3-1.6
		c-0.5-0.3-0.9-0.5-1.5-0.5c-2.5,0-5.2,2.2-8.1,6.5c-3.2,4.8-4.8,8.8-4.8,12.2c0,0.8,0.2,1.4,0.5,1.9c0.3,0.4,0.8,0.6,1.4,0.6
		c1.6,0,3.4-1.7,5.5-5c1.2-1.8,2.6-4.5,4.3-8.1c1.1-2.3,2-3.8,2.5-4.6C604.9,1052.1,605.4,1051.7,606.1,1051.1z"/>
	<path d="M620.5,1058.5c0.4-0.4,0.8-0.8,1.2-1.2c6.8-6.6,11.4-10,13.7-10c1.3,0,1.9,0.7,1.9,2.1c0,1-0.6,2.1-1.7,3.5
		c-6.2,7.3-9.3,13.7-9.3,19.2c0,1.8,0.5,3.5,1.5,5.1c0.5,0.7,0.7,1.3,0.7,1.8c0,0.4-0.2,0.8-0.6,1.1c-0.4,0.5-0.9,0.7-1.5,0.7
		c-1.3,0-2.5-0.8-3.4-2.5c-0.9-1.6-1.3-3.5-1.3-5.8c0-4.4,1.7-9.3,5-14.6c-4.4,2.8-8.5,7.8-12.4,15c-1,1.7-2,2.6-3.1,2.6
		c-0.6,0-1-0.2-1.4-0.6c-0.5-0.5-0.7-1-0.7-1.8c0-1.8,2-6.4,6-13.8c2.1-4,3.8-7,5.1-8.8c1.2-1.8,2.3-2.7,3.2-2.7
		c0.4,0,0.8,0.2,1.2,0.6c0.5,0.5,0.7,1,0.7,1.6c0,0.7-0.5,1.7-1.4,3.1C622.5,1055.1,621.3,1056.9,620.5,1058.5z"/>
	<path d="M641,1065.9v0.9c0,0.7,0.2,1.3,0.5,1.9c0.8,1.2,2.1,1.8,4,1.8c4.1,0,8.8-3.1,14.1-9.4c0.9-1.1,1.7-1.6,2.4-1.6
		c0.4,0,0.7,0.2,1,0.5c0.2,0.3,0.3,0.5,0.3,0.7c0,1.3-1.6,3.4-4.7,6.4c-2.4,2.4-5,4.3-7.8,5.8c-2.8,1.5-5.3,2.2-7.7,2.2
		c-2.4,0-4.4-0.8-5.8-2.5c-0.9-1.2-1.4-2.8-1.4-4.8c0-5.5,2.6-10.9,7.8-16.2c4.2-4.3,7.9-6.4,11-6.4c0.8,0,1.6,0.3,2.3,0.8
		c0.8,0.7,1.3,1.6,1.3,2.7c0,1.7-0.8,3.8-2.4,6.3C652.6,1060.3,647.6,1063.9,641,1065.9z M642.1,1062.1c2.3-0.8,4.1-1.7,5.4-2.6
		c2.3-1.8,4.1-3.7,5.4-6c0.5-0.8,0.7-1.5,0.7-2.1c0-0.7-0.3-1-0.9-1c-0.8,0-2.1,0.6-3.6,1.9C646.3,1054.5,643.9,1057.8,642.1,1062.1
		z"/>
	<path d="M682.7,1061.9c-2,3.4-3.7,6-5.1,7.6c-3.5,4.1-6.4,6.2-8.7,6.2c-1.4,0-2.5-0.8-3.2-2.3c-0.5-1-0.8-2.1-0.8-3.2
		c0-2.1,0.9-5.3,2.8-9.3c1.7-3.5,3.1-6.3,4.2-8.4c0.8-1.5,1.4-2.4,1.5-2.9c0.4-0.9,0.7-1.5,1-2c0.4-0.7,1-1,1.8-1
		c0.4,0,0.7,0.2,1,0.5c0.3,0.4,0.5,0.8,0.5,1.4c0,1.5-1.3,4.7-4,9.8c-2.6,5-4,8.3-4,10c0,1,0.4,1.6,1.2,1.6c1.4,0,3.4-1.8,6-5.5
		c1.1-1.6,2.3-3.7,3.6-6.2c0-0.8,0-1.4,0-1.9c0-2.4,0.5-4.6,1.4-6.3c1.2-2.3,2.8-3.5,4.7-3.5c1.1,0,1.7,0.7,1.7,2.1
		c0,2.2-1.1,5.4-3.4,9.6c0.7,0.1,1.2,0.2,1.6,0.2c1.1,0,2.5-0.7,4.2-2.1c1.4-1.1,2.3-1.7,2.7-1.7c0.4,0,0.7,0.2,1.1,0.6
		c0.3,0.4,0.4,0.7,0.4,1.1c0,1.2-0.8,2.5-2.4,4c-1.9,1.7-4,2.5-6.4,2.5C685,1062.7,683.9,1062.5,682.7,1061.9z"/>
	<path d="M726.7,1010.7c1.5,0,2.3,1,2.3,2.9c0,3-1.6,6.8-4.9,11.6c-1.3,2-2.9,3.7-4.7,5.4c-1.2,1.1-2.1,1.6-2.8,1.6
		c-0.7,0-1.2-0.3-1.7-0.9c-0.3-0.4-0.4-0.8-0.4-1.4c0-0.7,0.7-1.7,2.1-3c4-3.8,6.3-8.3,7-13.4c0.2-0.9,0.6-1.7,1.3-2.2
		C725.5,1011,726.1,1010.7,726.7,1010.7z"/>
	<path d="M735.4,1042.8c2,0,3.5,0.4,4.5,1.1c1,0.7,1.5,1.8,1.5,3.3c0,1.9-0.7,3.8-2.1,5.6c-1.4,1.7-3.4,3.1-6.2,4.1
		c-1.5,0.6-2.8,0.8-3.8,0.8c-1.4,0-2.1-0.6-2.1-1.8c0-0.8,0.4-1.4,1.2-1.9c0.2-0.1,1.3-0.4,3.3-0.8c1.2-0.3,2.3-0.8,3.3-1.7
		c0.9-0.7,1.3-1.6,1.3-2.4c0-0.7-0.2-1.2-0.6-1.5c-0.4-0.3-1-0.5-1.8-0.5c-1.9,0-4,0.8-6.2,2.3c-2.6,1.7-4,3.8-4,6.2
		c0,1.7,0.9,3.8,2.6,6.3c1.9,2.8,2.9,5.1,2.9,7c0,2.9-1.3,5.1-3.8,6.7c-1.6,1-3.3,1.5-5.3,1.5c-3.1,0-5.5-1.1-7.1-3.4
		c-1.1-1.6-1.7-3.5-1.7-5.7c0-2.5,0.7-4.7,2-6.4c0.8-1.1,1.7-1.7,2.6-1.7c0.8,0,1.2,0.3,1.2,1c0,0.3-0.1,0.7-0.4,1.2
		c-0.7,1.4-1.1,3-1.1,4.9c0,1.6,0.6,2.9,1.7,4.1c1,1,2.2,1.5,3.5,1.5c1.3,0,2.3-0.4,3-1.3c0.6-0.7,0.9-1.6,0.9-2.7
		c0-1.4-0.8-3.1-2.3-5.3c-2.1-3-3.2-5.7-3.2-8.2c0-3.3,1.8-6.1,5.3-8.6C727.9,1044,731.6,1042.8,735.4,1042.8z"/>
	<path d="M781.4,1061.9c-2,3.4-3.7,6-5.1,7.6c-3.5,4.1-6.4,6.2-8.7,6.2c-1.4,0-2.5-0.8-3.2-2.3c-0.5-1-0.8-2.1-0.8-3.2
		c0-2.1,0.9-5.3,2.8-9.3c1.7-3.5,3.1-6.3,4.2-8.4c0.8-1.5,1.4-2.4,1.5-2.9c0.4-0.9,0.7-1.5,1-2c0.4-0.7,1-1,1.8-1
		c0.4,0,0.7,0.2,1,0.5c0.3,0.4,0.5,0.8,0.5,1.4c0,1.5-1.3,4.7-4,9.8c-2.6,5-4,8.3-4,10c0,1,0.4,1.6,1.2,1.6c1.4,0,3.4-1.8,6-5.5
		c1.1-1.6,2.3-3.7,3.6-6.2c0-0.8,0-1.4,0-1.9c0-2.4,0.5-4.6,1.4-6.3c1.2-2.3,2.8-3.5,4.7-3.5c1.1,0,1.7,0.7,1.7,2.1
		c0,2.2-1.1,5.4-3.4,9.6c0.7,0.1,1.2,0.2,1.6,0.2c1.1,0,2.5-0.7,4.2-2.1c1.4-1.1,2.3-1.7,2.7-1.7c0.4,0,0.7,0.2,1.1,0.6
		c0.3,0.4,0.4,0.7,0.4,1.1c0,1.2-0.8,2.5-2.4,4c-1.9,1.7-4,2.5-6.4,2.5C783.8,1062.7,782.7,1062.5,781.4,1061.9z"/>
	<path d="M803.9,1046c0.6,0,1,0.2,1.4,0.6c0.3,0.4,0.4,0.7,0.4,1.1c0,0.6-0.5,1.6-1.4,2.9c-3.4,5.2-5.8,9.6-7.2,12.9
		c-1.5,3.5-2.9,7.1-4.1,10.7c-0.5,1.6-1.3,2.4-2.4,2.4c-0.7,0-1.2-0.3-1.6-0.8c-0.4-0.4-0.5-0.9-0.5-1.4c0-1,1-4.2,3.1-9.8
		c1.6-4.4,4.3-9.2,7.9-14.5c1.2-1.7,2.1-2.9,2.6-3.5C802.7,1046.3,803.3,1046,803.9,1046z M813.2,1027.9c1.5,0,2.2,0.7,2.2,2.2
		c0,1.4-0.7,2.9-2.1,4.5c-1.4,1.6-2.7,2.4-4,2.4c-0.6,0-1.1-0.2-1.5-0.7c-0.4-0.4-0.6-0.9-0.6-1.6c0-1.6,0.9-3.2,2.6-5
		C811,1028.5,812.2,1027.9,813.2,1027.9z"/>
	<path d="M812.3,1059c-1,2.5-1.7,4.6-2.2,6.2s-0.7,2.7-0.7,3.3c0,0.8,0.4,1.2,1.2,1.2c1.2,0,2.7-1.1,4.5-3.3c0.9-1.1,2.2-3,3.9-5.8
		c0.7-1.1,1.4-1.7,2.1-1.7c0.8,0,1.3,0.4,1.3,1.2c0,1.4-1.6,4.2-4.8,8.5c-3.4,4.5-6.5,6.7-9.3,6.7c-1.2,0-2.2-0.5-3-1.6
		c-0.6-0.7-0.8-1.7-0.8-2.7c0-1.8,0.6-4.3,1.7-7.6s2.8-7.1,4.9-11.8c5.6-11.8,11.3-21.4,17.1-29.1c4.7-6.1,8.5-9.2,11.6-9.2
		c1,0,1.8,0.4,2.4,1.1c0.7,0.7,1,1.6,1,2.6c0,4.6-4.1,12.1-12.2,22.8c-3.6,4.7-8,9.4-13.1,14.2
		C816.4,1055.3,814.6,1056.9,812.3,1059z M815.8,1051.3c6.8-5.8,12.8-13.1,18.2-22c2.8-4.6,4.2-7.6,4.2-9.1c0-0.7-0.3-1.1-0.9-1.1
		c-1.8,0-5,3.6-9.8,10.7C823.5,1035.6,819.6,1042.8,815.8,1051.3z"/>
	<path d="M833.8,1059c-1,2.5-1.7,4.6-2.2,6.2s-0.7,2.7-0.7,3.3c0,0.8,0.4,1.2,1.2,1.2c1.2,0,2.7-1.1,4.5-3.3c0.9-1.1,2.2-3,3.9-5.8
		c0.7-1.1,1.4-1.7,2.1-1.7c0.8,0,1.3,0.4,1.3,1.2c0,1.4-1.6,4.2-4.8,8.5c-3.4,4.5-6.5,6.7-9.3,6.7c-1.2,0-2.2-0.5-3-1.6
		c-0.6-0.7-0.8-1.7-0.8-2.7c0-1.8,0.6-4.3,1.7-7.6s2.8-7.1,4.9-11.8c5.6-11.8,11.3-21.4,17.1-29.1c4.7-6.1,8.5-9.2,11.6-9.2
		c1,0,1.8,0.4,2.4,1.1c0.7,0.7,1,1.6,1,2.6c0,4.6-4.1,12.1-12.2,22.8c-3.6,4.7-8,9.4-13.1,14.2
		C837.9,1055.3,836.1,1056.9,833.8,1059z M837.3,1051.3c6.8-5.8,12.8-13.1,18.2-22c2.8-4.6,4.2-7.6,4.2-9.1c0-0.7-0.3-1.1-0.9-1.1
		c-1.8,0-5,3.6-9.8,10.7C845,1035.6,841.1,1042.8,837.3,1051.3z"/>
	<path d="M861.6,1067.2c-1.1,1.9-2.1,3.5-3.2,4.8c-2.1,2.5-4.1,3.8-6.1,3.8c-1.8,0-3.1-0.8-4.1-2.5c-0.6-1.1-0.9-2.3-0.9-3.8
		c0-3.6,1.1-7.6,3.4-12c2.5-4.8,5.6-8.6,9.2-11.2c2.3-1.7,4.6-2.5,6.8-2.5c1.4,0,2.5,0.4,3.4,1.3c0.8,0.7,1.2,1.6,1.2,2.5
		c0,0.7-0.3,1.7-0.8,3c0.5,0.7,0.7,1.3,0.7,1.8c0,0.7-0.5,1.8-1.4,3.4c-0.9,1.6-1.9,3.7-2.8,6.3c-1,2.8-1.5,5-1.5,6.7
		c0,1.4,0.4,2.5,1.2,3.4c0.2,0.2,0.9,0.6,2,1.1c0.8,0.4,1.2,1.1,1.2,2.1c0,0.6-0.2,1.1-0.7,1.5c-0.5,0.4-1.1,0.6-1.7,0.6
		c-1.8,0-3.3-0.8-4.5-2.3c-1-1.3-1.6-2.9-1.6-4.8C861.4,1069.8,861.5,1068.7,861.6,1067.2z M867.7,1051.1c-0.4-0.7-0.8-1.2-1.3-1.6
		c-0.5-0.3-0.9-0.5-1.5-0.5c-2.5,0-5.2,2.2-8.1,6.5c-3.2,4.8-4.8,8.8-4.8,12.2c0,0.8,0.2,1.4,0.5,1.9c0.3,0.4,0.8,0.6,1.4,0.6
		c1.6,0,3.4-1.7,5.5-5c1.2-1.8,2.6-4.5,4.3-8.1c1.1-2.3,2-3.8,2.5-4.6C866.6,1052.1,867,1051.7,867.7,1051.1z"/>
	<path d="M887.7,1071c3.5-2.5,6.1-4.8,7.8-6.9c2.5-3,4.3-5.5,5.3-7.4c0.5-0.8,1.1-1.3,1.6-1.3c0.8,0,1.2,0.4,1.2,1.1
		c0,0.9-0.6,2.3-1.9,4.4c-3.8,6.2-9.6,11.7-17.3,16.4c-3.6,7.5-6.2,12.6-7.9,15.2c-4.5,7-8.7,10.5-12.7,10.5c-2.1,0-3.6-0.8-4.5-2.4
		c-0.5-0.9-0.8-2-0.8-3.2c0-5.1,3.3-10,9.9-14.7c1-0.8,5.3-3.2,12.6-7.3c1.4-3,2.5-5.4,3.3-7.1c-3.4,3.6-6.2,5.4-8.5,5.4
		c-1.4,0-2.5-0.7-3.3-2.1c-0.5-0.9-0.7-1.9-0.7-2.9c0-2.3,1-5.4,2.9-9c2.7-5.3,6-9.5,9.9-12.6c3.2-2.6,6.1-3.9,8.5-3.9
		c1.3,0,2.4,0.5,3.3,1.4c0.6,0.6,0.9,1.5,0.9,2.7c0,1.5-0.5,3.4-1.5,5.6c0.7,0.7,1.1,1.3,1.1,1.6c0,0.2-0.2,0.6-0.5,1
		c-0.9,1.2-2.3,3.5-4.2,6.8C890.6,1065.1,889,1068,887.7,1071z M878.2,1081.1c-4.3,1.8-8.1,4.6-11.4,8.3c-1.5,1.7-2.6,3.5-3.3,5.5
		c-0.2,0.6-0.3,1.1-0.3,1.5c0,0.4,0.1,0.8,0.3,1.1c0.4,0.6,0.9,0.9,1.5,0.9c2,0,4.4-2.2,7.1-6.5
		C874.5,1088.1,876.5,1084.5,878.2,1081.1z M887.4,1059.8c-0.5-0.5-0.7-0.8-0.7-1c0-0.3,0.2-0.7,0.7-1.1c1.6-1.6,2.9-3.2,4-4.9
		c0.8-1.3,1.2-2.4,1.2-3.1c0-0.9-0.4-1.3-1.2-1.3c-1.4,0-3.4,1.3-6,4c-3.1,3.2-5.5,6.7-7.2,10.6c-0.8,2-1.3,3.5-1.3,4.5
		c0,0.6,0.1,1,0.4,1.3c0.3,0.3,0.6,0.4,1.1,0.4c1.1,0,2.7-1.2,4.8-3.5c1.3-1.5,2.4-3,3.3-4.4
		C887.1,1060.3,887.4,1059.8,887.4,1059.8z"/>
	<path d="M907.5,1065.9v0.9c0,0.7,0.2,1.3,0.5,1.9c0.8,1.2,2.1,1.8,4,1.8c4.1,0,8.8-3.1,14.1-9.4c0.9-1.1,1.7-1.6,2.4-1.6
		c0.4,0,0.7,0.2,1,0.5c0.2,0.3,0.3,0.5,0.3,0.7c0,1.3-1.6,3.4-4.7,6.4c-2.4,2.4-5,4.3-7.8,5.8c-2.8,1.5-5.3,2.2-7.7,2.2
		c-2.4,0-4.4-0.8-5.8-2.5c-0.9-1.2-1.4-2.8-1.4-4.8c0-5.5,2.6-10.9,7.8-16.2c4.2-4.3,7.9-6.4,11-6.4c0.8,0,1.6,0.3,2.3,0.8
		c0.8,0.7,1.3,1.6,1.3,2.7c0,1.7-0.8,3.8-2.4,6.3C919,1060.3,914.1,1063.9,907.5,1065.9z M908.5,1062.1c2.3-0.8,4.1-1.7,5.4-2.6
		c2.3-1.8,4.1-3.7,5.4-6c0.5-0.8,0.7-1.5,0.7-2.1c0-0.7-0.3-1-0.9-1c-0.8,0-2.1,0.6-3.6,1.9C912.7,1054.5,910.4,1057.8,908.5,1062.1
		z"/>
</g>
<path class="st3" d="M827.7,939.5"/>
<polyline class="st1" points="1039.4,1119.6 1039.4,1184 618,1184 618,1127.9 "/>
</svg>
